<?xml version="1.0" standalone="no"?>
<!DOCTYPE svg PUBLIC "-//W3C//DTD SVG 20010904//EN"
 "http://www.w3.org/TR/2001/REC-SVG-20010904/DTD/svg10.dtd">
<svg version="1.0" xmlns="http://www.w3.org/2000/svg"
 width="487.000000pt" height="487.000000pt" viewBox="0 0 487.000000 487.000000"
 preserveAspectRatio="xMidYMid meet">
<metadata>
Created by potrace 1.11, written by Peter Selinger 2001-2013
</metadata>
<g transform="translate(0.000000,487.000000) scale(0.100000,-0.100000)"
fill="#000000" stroke="none">
<path d="M2970 4847 c-25 -12 -47 -24 -50 -27 -3 -3 -30 -18 -60 -34 -188 -99
-349 -240 -401 -350 -27 -58 -31 -75 -26 -121 9 -89 60 -154 189 -241 304
-204 374 -448 204 -707 -21 -32 -36 -61 -33 -63 6 -6 81 28 85 39 2 4 8 7 14
7 34 0 194 133 230 191 36 58 58 192 35 215 -4 4 -7 15 -7 25 0 25 -56 126
-104 184 -37 46 -95 105 -217 219 -82 77 -112 176 -88 292 18 86 115 229 232
343 29 28 50 51 47 50 -3 0 -25 -10 -50 -22z"/>
<path d="M2061 4809 c-69 -36 -200 -117 -211 -130 -3 -3 -13 -10 -22 -15 -40
-22 -138 -118 -175 -171 -55 -82 -68 -137 -48 -213 4 -14 7 -31 7 -37 1 -7 5
-13 10 -13 4 0 8 -6 8 -12 0 -15 54 -74 91 -100 13 -10 51 -37 84 -60 33 -23
66 -48 73 -55 7 -7 21 -18 30 -25 27 -20 98 -108 122 -153 37 -65 49 -122 46
-204 -4 -89 -29 -161 -86 -248 -46 -71 -48 -77 -19 -68 24 8 156 83 183 105
42 34 113 107 129 132 50 80 55 188 14 278 -15 32 -76 128 -102 159 -23 27
-136 141 -186 187 -59 54 -78 82 -99 145 -26 75 -21 132 17 227 31 79 65 129
153 224 95 103 94 106 -19 47z"/>
<path d="M1081 3015 c-4 -5 -7 -467 -7 -1025 l1 -1015 28 -56 c50 -101 145
-185 246 -218 64 -21 75 -21 1140 -21 1223 0 1108 -8 1214 90 38 35 68 75 89
119 32 64 32 70 36 226 2 88 6 162 9 165 2 3 39 6 81 7 189 5 263 22 395 90
129 68 191 122 316 279 19 24 74 141 91 194 31 96 41 162 42 271 0 241 -118
516 -294 685 -96 91 -186 145 -328 195 l-65 23 -1493 1 c-1027 1 -1495 -2
-1501 -10z m3079 -362 c36 -17 83 -48 106 -69 58 -55 126 -164 123 -198 0 -5
4 -12 9 -15 18 -11 33 -106 36 -221 2 -125 -11 -184 -60 -267 -31 -54 -151
-183 -170 -183 -7 0 -17 -6 -21 -13 -4 -8 -39 -31 -77 -52 -62 -35 -76 -38
-150 -40 -44 -1 -89 0 -98 3 -16 4 -18 40 -18 542 0 382 4 540 11 542 6 2 64
3 128 2 107 -1 121 -3 181 -31z"/>
<path d="M30 432 c0 -54 33 -167 56 -189 8 -8 14 -18 14 -22 0 -29 174 -163
240 -186 3 -1 18 -7 34 -14 15 -6 38 -12 50 -12 11 -1 926 2 2031 6 2151 7
2066 5 2165 55 75 38 121 85 159 160 35 68 44 102 52 205 l4 40 -2403 3 -2402
2 0 -48z"/>
</g>
</svg>
